<svg width="170" height="170" viewBox="0 0 170 170" fill="none" xmlns="http://www.w3.org/2000/svg">
<path d="M2.54688 69.0371C34.9492 54.512 71.4883 58.7316 94.1689 82.6191C115.062 104.625 118.677 137.51 106.465 167.264C100.649 168.777 94.592 169.688 88.3623 169.931C103.925 145.463 102.096 113.376 82.0039 92.2148C60.6364 69.71 25.8588 67.1916 0 84.7705C0.0139808 79.4947 0.508598 74.3316 1.44238 69.3232C1.80382 69.2936 2.17561 69.2035 2.54688 69.0371ZM0.396484 93.2607C22.6416 86.6935 47.2006 92.139 63.7324 109.551C79.2799 125.926 83.8902 148.843 77.9697 169.71C73.0962 169.311 68.3394 168.5 63.7334 167.313C72.3879 150.763 70.0698 129.867 56.4922 115.566C42.278 100.596 20.2053 97.5726 2.82812 106.821C1.66514 102.43 0.843937 97.9001 0.396484 93.2607ZM5.04883 113.923C18.9587 111.941 33.5857 116.494 43.9971 127.46C53.8606 137.849 57.7793 151.718 55.8682 164.873C50.5667 162.939 45.5128 160.491 40.7646 157.592C42.2487 153.413 42.5813 148.771 41.4678 144.138C38.4078 131.407 25.606 123.567 12.875 126.627C12.2896 126.768 11.7145 126.928 11.1504 127.109C8.75847 122.924 6.71068 118.516 5.04883 113.923ZM84.999 0C131.943 0.000177301 169.998 38.0562 169.998 85C169.998 118.651 150.442 147.733 122.076 161.506C145.102 127.778 145.223 84.9804 119.838 58.2432C91.1585 28.0369 40.319 29.2765 3.70508 60.1006C14.3493 25.3058 46.7188 0 84.999 0Z" fill="black"/>
</svg>
